<?xml version="1.0" encoding="UTF-8"?>
<svg id="Layer_2" data-name="Layer 2" xmlns="http://www.w3.org/2000/svg" viewBox="0 0 323.83 221.63">
  <g id="Layer_1-2" data-name="Layer 1">
    <path d="M224.03,94.17c30.41,5.37,63.53,20.26,83.44,44.47,35.36,43,10.65,95.84-47.44,80.17-36.26-9.78-69.59-44.15-90.99-73.73-3.07-4.25-15.01-17.84-6.32-21.39,6.68-2.72,11.28,8.72,14.5,13.2,21.11,29.4,54.1,66.33,91.42,73.3,45.2,8.45,56.64-31.93,31.73-63.37-22.48-28.38-63.38-42.24-98.45-45.01-3.58-.28-8.79,1.19-11.18-1.91-2.62-3.38-.73-7.07,2.9-8.57,4.8-1.98,13.06-3,18.67-4.78,28.06-8.89,72.34-27.76,89.93-51.89,4.72-6.47,10.56-18.24-.65-21.62-18.26-5.51-46.37,11.77-60.84,22.31-41.91,30.53-77.11,78.58-111.91,117.18-18.22,20.21-39.74,43.77-64.99,55.01-52.34,23.29-83.19-18.2-50.28-63.37,15.04-20.64,38.94-34.18,63.71-39.65l-20.71-7.37C28.21,88.43-5.43,50.19,19.2,21.62s69.23-7.21,90.83,12.82c13.13,12.17,30.23,37.7,33.56,55.35.42,2.24,2.3,10.57-1.54,9.19-1.84-.66-5.87-11.07-7.19-13.55-15.21-28.6-39.64-59.64-73.36-66.28-23.42-4.61-47.63,7.04-39.14,34.23,6.58,21.05,34.71,33.26,54.27,38.45,10.4,2.76,25.74,3.44,33.69,11.04,3.86,3.69,2.03,10.11-3.45,10.83-35.17-4.31-78.48,15.74-92.4,49.37-9.45,22.83,0,41.9,26.4,37.86,23.81-3.65,47.98-25.93,63.98-42.93C149.89,110.11,206.59,25.88,269.56,4.17c18.37-6.33,52.44-9.11,49.94,19.39-2.15,24.48-42.95,48.3-63.1,57.45-10.01,4.55-21.34,7.59-31.03,12.06-.54.25-1.28.32-1.35,1.1Z"/>
  </g>
</svg>